<svg width="89" height="68" viewBox="0 0 89 68" fill="none" xmlns="http://www.w3.org/2000/svg">
<path d="M68.2403 29.6305V29.5567C68.2403 28.7405 68.9046 28.0788 69.724 28.0788H75.6591C77.3107 28.0832 78.8893 27.4019 80.0156 26.1988C81.1419 24.9957 81.7139 23.3795 81.5942 21.7389C81.2849 18.5829 78.5901 16.1949 75.4069 16.2562H53.2691C52.9313 14.2819 51.9324 12.4796 50.4351 11.1429V5.91133C50.4351 2.64659 47.7778 0 44.5 0C41.2222 0 38.5649 2.64659 38.5649 5.91133V11.1429C37.0676 12.4796 36.0687 14.2819 35.7309 16.2562H13.3409C11.6893 16.2518 10.1107 16.9331 8.98439 18.1362C7.8581 19.3393 7.28608 20.9554 7.40582 22.5961C7.71508 25.7521 10.4099 28.1401 13.5931 28.0788H19.276C20.0954 28.0788 20.7597 28.7405 20.7597 29.5567V29.6305C12.0544 30.2152 4.49501 35.8122 1.42443 43.9465C-1.64615 52.0807 0.338498 61.2518 6.50072 67.4039C6.78074 67.6806 7.15981 67.8348 7.5542 67.8325C7.94859 67.8348 8.32766 67.6806 8.60767 67.4039C8.88857 67.1265 9.04657 66.7487 9.04657 66.3547C9.04657 65.9606 8.88857 65.5829 8.60767 65.3054C3.09405 59.811 1.44515 51.5502 4.42949 44.3731C7.41383 37.1959 14.444 32.5152 22.2435 32.5123H26.6948C28.3337 32.5123 29.6623 31.189 29.6623 29.5567C29.6623 28.7405 30.3266 28.0788 31.1461 28.0788H32.6299C33.4493 28.0788 34.1136 28.7405 34.1136 29.5567V40.5961C29.1493 35.338 21.2985 33.9698 14.8365 37.2365C8.37453 40.5032 4.84894 47.6225 6.17963 54.7174C7.51032 61.8124 13.3786 67.1839 20.5889 67.9068C27.7991 68.6297 34.6245 64.5309 37.3482 57.8424C39.522 56.6127 42.0035 56.0282 44.5 56.1576C46.992 56.026 49.4694 56.6108 51.6369 57.8424C54.3556 64.5325 61.1776 68.6363 68.3881 67.919C75.5987 67.2017 81.471 61.8352 82.8075 54.7416C84.144 47.6481 80.6247 40.5261 74.1659 37.2539C67.707 33.9817 59.8554 35.3428 54.8864 40.5961V29.5567C54.8864 28.7405 55.5507 28.0788 56.3701 28.0788H57.8539C58.6734 28.0788 59.3377 28.7405 59.3377 29.5567C59.3377 31.189 60.6663 32.5123 62.3052 32.5123H66.7565C74.556 32.5152 81.5862 37.1959 84.5705 44.3731C87.5548 51.5502 85.9059 59.811 80.3923 65.3054C80.1114 65.5829 79.9534 65.9606 79.9534 66.3547C79.9534 66.7487 80.1114 67.1265 80.3923 67.4039C80.6723 67.6806 81.0514 67.8348 81.4458 67.8325C81.8402 67.8348 82.2193 67.6806 82.4993 67.4039C88.6615 61.2518 90.6461 52.0807 87.5756 43.9465C84.505 35.8122 76.9456 30.2152 68.2403 29.6305ZM41.5325 5.91133C41.5325 4.27896 42.8611 2.95567 44.5 2.95567C46.1389 2.95567 47.4675 4.27896 47.4675 5.91133V9.38424C45.5498 8.69467 43.4503 8.69467 41.5325 9.38424V5.91133ZM44.5 11.8227C47.1219 11.8329 49.4265 13.5555 50.1689 16.0601C50.9113 18.5647 49.9157 21.2578 47.7198 22.6847C45.6291 21.9949 43.3709 21.9949 41.2802 22.6847C39.0843 21.2578 38.0887 18.5647 38.8311 16.0601C39.5735 13.5555 41.8781 11.8329 44.5 11.8227ZM44.5 25.1232C48.5973 25.1232 51.9188 28.4314 51.9188 32.5123C51.9188 36.5932 48.5973 39.9015 44.5 39.9015C40.4027 39.9015 37.0812 36.5932 37.0812 32.5123C37.0812 28.4314 40.4027 25.1232 44.5 25.1232ZM32.6299 25.1232H31.1461C28.6877 25.1232 26.6948 27.1081 26.6948 29.5567H23.7273C23.7273 27.1081 21.7343 25.1232 19.276 25.1232H13.5931C11.9778 25.1605 10.5919 23.9837 10.3734 22.3892C10.3142 21.5304 10.6338 20.6886 11.2488 20.0837C11.8027 19.5287 12.5551 19.2151 13.3409 19.2118H35.7309C36.0516 21.1103 36.9838 22.8532 38.3869 24.1773C37.4433 24.8416 36.6204 25.6612 35.9535 26.601C35.1077 25.6591 33.8986 25.1215 32.6299 25.1232ZM11.1894 59.1133C10.5614 58.137 10.0627 57.0839 9.70566 55.9803L26.5761 39.1626C27.6841 39.5182 28.7414 40.0149 29.7217 40.6404L11.1894 59.1133ZM22.2435 38.4236H23.0744L8.88959 52.5517C8.88959 52.2709 8.88959 52.0049 8.88959 51.7241C8.88959 44.3785 14.8683 38.4236 22.2435 38.4236ZM22.2435 65.0246C18.8558 65.0254 15.5962 63.7353 13.1332 61.4187L31.977 42.6502C35.6008 46.5183 36.5783 52.1577 34.4665 57.0121C32.3547 61.8665 27.5552 65.0127 22.2435 65.0246ZM44.5 53.202C42.4195 53.17 40.3483 53.4847 38.372 54.133C38.4958 53.3359 38.5603 52.5307 38.5649 51.7241C38.5649 51.4729 38.5649 51.2365 38.5649 51C42.4875 49.9952 46.6015 49.9952 50.5241 51V51.7241C50.5282 52.5259 50.5926 53.3261 50.717 54.1182C48.7093 53.4745 46.6088 53.1649 44.5 53.202ZM55.7024 59.1133C55.0745 58.137 54.5757 57.0839 54.2187 55.9803L71.0891 39.1626C72.1972 39.5182 73.2544 40.0149 74.2347 40.6404L55.7024 59.1133ZM80.1104 51.7241C80.0984 57.0146 76.9396 61.795 72.0657 63.8983C67.1918 66.0017 61.5298 65.028 57.6462 61.4187L76.49 42.6502C78.8159 45.1035 80.1112 48.35 80.1104 51.7241ZM66.7565 38.4236H67.5874L53.4026 52.5517C53.4026 52.2709 53.4026 52.0049 53.4026 51.7241C53.4026 44.3785 59.3813 38.4236 66.7565 38.4236ZM51.9188 44.9852C51.4691 45.962 51.1211 46.9821 50.8802 48.0296C46.6842 47.0443 42.3158 47.0443 38.1198 48.0296C37.8789 46.9821 37.5309 45.962 37.0812 44.9852V39.7389C39.0347 41.7248 41.7086 42.8439 44.5 42.8439C47.2914 42.8439 49.9653 41.7248 51.9188 39.7389V44.9852ZM57.8539 25.1232H56.3701C55.1014 25.1215 53.8923 25.6591 53.0465 26.601C52.3846 25.6493 51.5671 24.8151 50.628 24.133C52.0171 22.8185 52.9434 21.0926 53.2691 19.2118H75.4069C77.0222 19.1745 78.4081 20.3513 78.6266 21.9458C78.6858 22.8046 78.3662 23.6464 77.7512 24.2512C77.1973 24.8063 76.4449 25.1199 75.6591 25.1232H69.724C67.2657 25.1232 65.2727 27.1081 65.2727 29.5567H62.3052C62.3052 27.1081 60.3123 25.1232 57.8539 25.1232Z" fill="white"/>
</svg>
