<svg width="109" height="77" viewBox="0 0 109 77" fill="none" xmlns="http://www.w3.org/2000/svg">
<path fill-rule="evenodd" clip-rule="evenodd" d="M28.8369 0.380115C28.8369 0.589079 28.1775 0.882822 27.3718 1.03288C26.5662 1.18333 25.4393 1.54832 24.868 1.84485C24.2968 2.14098 23.6186 2.38418 23.361 2.38577C22.9439 2.38776 21.3275 3.10699 19.6229 4.04833C19.2924 4.23102 18.6118 4.55621 18.1102 4.77154C17.6082 4.98647 16.9773 5.3439 16.7081 5.5652C16.4385 5.78651 15.0964 6.78555 13.7259 7.785C7.67116 12.2007 2.73728 19.9152 1.14086 27.4638C0.932546 28.4489 0.588824 29.5658 0.377704 29.9459C-0.10623 30.8156 -0.134673 48.1612 0.347658 48.1612C0.542354 48.1612 0.831192 49.1913 0.989031 50.4498C1.14687 51.7084 1.46615 53.0923 1.69891 53.525C1.93126 53.958 2.25776 54.8536 2.42441 55.5151C3.03694 57.9506 6.56549 65.7961 8.52206 69.0735C11.4854 74.0373 14.149 77.6127 19.0011 83.1385C23.1643 87.8802 32.9916 96.7204 34.0996 96.7204C34.9081 96.7204 35.0936 95.785 34.4386 95.0121C33.0052 93.3205 27.2344 85.303 27.2344 85.0025C27.2344 84.9018 26.6936 84.0234 26.0326 83.0502C25.3716 82.077 24.8308 81.1814 24.8308 81.0601C24.8308 80.9387 24.316 80.069 23.6867 79.1276C23.0577 78.1863 21.8631 75.9832 21.0322 74.2319C20.2018 72.4806 19.0941 70.1617 18.5709 69.0791C17.049 65.9279 17.172 65.6743 20.2242 65.6743C22.7364 65.6743 22.8838 65.6178 24.3837 64.0822C25.9096 62.52 26.8338 62.0778 26.8338 62.91C26.8338 63.574 28.4627 66.9962 29.1441 67.764C29.9429 68.6643 32.1335 68.6643 32.9491 67.764C33.5692 67.0794 34.4694 64.6267 35.8335 59.903C36.2128 58.5895 36.7681 56.7088 37.0673 55.7237C37.3662 54.7386 37.6651 53.4848 37.7308 52.9375C37.9511 51.1062 38.6449 52.0587 39.3789 55.1991C40.0679 58.1485 40.5414 60.1087 41.6683 64.6793C41.9383 65.7738 42.3085 67.5407 42.4916 68.6062C43.0781 72.0189 44.0712 74.4548 45.0222 74.8142C46.1603 75.2441 47.9022 74.9074 48.55 74.1324C49.1957 73.359 50.3142 69.3895 51.8165 62.5367C52.3309 60.1915 52.56 60.2429 53.8248 62.9869C54.9793 65.4917 55.7521 65.6743 65.1832 65.6743C74.0514 65.6743 75.3073 65.4288 75.3073 63.6942C75.3073 61.671 75.4111 61.6941 66.2997 61.6941C59.9657 61.6941 57.675 61.5663 57.3741 61.1965C57.1514 60.9231 56.6394 59.6243 56.2364 58.3109C55.164 54.8166 54.2622 53.7336 52.4246 53.7336C50.5879 53.7336 49.5419 54.983 48.9137 57.9272C47.6923 63.6552 47.1715 65.5283 46.6583 66.0437C45.9716 66.7331 45.8631 66.5138 45.2958 63.2862C44.9365 61.2415 44.749 60.4252 43.6301 56.0222C43.3933 55.0916 43.058 53.5246 42.8846 52.5395C42.5208 50.4753 41.6944 47.1347 41.2585 45.9677C40.7994 44.7386 39.0463 43.9612 37.7396 44.407C36.5578 44.8102 34.8916 47.6414 34.8624 49.2952C34.8536 49.8094 34.6024 50.7945 34.3044 51.4843C34.0063 52.1741 33.5688 53.4549 33.3321 54.3306C32.0834 58.9453 31.2778 61.4182 30.9012 61.7924C30.6083 62.0834 30.1709 61.5114 29.455 59.903C28.3213 57.3568 27.5149 56.5516 26.0787 56.5325C25.1793 56.5205 23.2284 58.1397 23.2284 58.8979C23.2284 59.0886 22.7617 59.7959 22.1912 60.4694C21.2309 61.6037 20.9633 61.6941 18.5733 61.6941C16.4665 61.6941 15.9517 61.5659 15.7706 60.9975C15.6485 60.6142 15.3164 59.6741 15.0323 58.9079C12.6772 52.5538 11.5394 40.1008 12.7268 33.6718C13.204 31.0878 15.4025 25.24 16.2694 24.2482C16.5715 23.9027 16.8186 23.4859 16.8186 23.3224C16.8186 22.9625 19.9017 18.9938 21.5302 17.2576C24.5391 14.0499 30.35 10.3435 34.846 8.76414C39.0752 7.27871 48.3845 7.30856 53.4049 8.82345C57.4418 10.0418 64.4909 14.0722 64.4909 15.1624C64.4909 16.13 66.145 15.2862 68.469 13.1333C69.8859 11.8206 71.1803 10.7467 71.3449 10.7467C71.5096 10.7467 71.8829 10.5119 72.1742 10.2249C72.7066 9.6999 75.1078 8.53209 77.711 7.53265C80.4383 6.48504 89.349 7.20706 90.9627 8.60612C91.3104 8.90783 91.814 9.15461 92.0816 9.15461C93.0298 9.15461 97.0311 12.5167 98.799 14.799C100.486 16.977 101.753 17.6736 102.333 16.7414C102.685 16.1762 98.8651 10.8199 96.4594 8.50423C94.611 6.72505 93.1913 5.76661 89.8979 4.0746C88.102 3.15197 86.0452 2.38816 85.3578 2.38816C84.9516 2.38816 83.9721 2.11949 83.1809 1.79112C81.2772 1.00064 78.9989 1.05198 75.107 1.97262C71.2728 2.87972 69.0599 3.66224 67.2423 4.75482C66.5004 5.20101 65.4424 5.78929 64.8915 6.06194C64.3407 6.33499 63.6517 6.78396 63.3608 7.06019C62.4803 7.89525 61.1002 7.63176 59.243 6.27329C55.8643 3.80274 50.6367 1.54832 46.9151 0.956855C46.0057 0.812372 45.2618 0.538132 45.2618 0.347079C45.2618 0.156026 41.5662 0 37.0493 0C32.1014 0 28.8369 0.150852 28.8369 0.380115ZM97.3408 22.2895C96.3525 23.2714 96.3501 23.5715 97.3075 26.7255C97.9877 28.9676 98.5342 33.7626 98.5702 37.8125C98.5902 40.0617 97.8888 44.7557 97.3956 45.6715C97.1449 46.1364 96.9402 46.9038 96.9402 47.3771C96.9402 47.8503 96.6822 48.7129 96.3669 49.294C96.0512 49.8751 95.3794 51.2459 94.873 52.3405C94.367 53.435 93.5029 55.047 92.9533 55.9227C92.4033 56.7984 91.7351 57.9156 91.4683 58.406C88.9613 63.0127 77.471 73.5983 70.3646 77.8488C69.2986 78.4864 67.9466 79.3071 67.3601 79.6729C66.0998 80.4582 57.6922 84.6403 55.6776 85.4841C54.9064 85.8069 53.7651 86.318 53.1413 86.6193C52.5176 86.921 51.8161 87.1678 51.5826 87.1678C51.3494 87.1678 50.4176 87.5013 49.5122 87.9085C47.4771 88.8243 45.4372 89.546 43.8596 89.909C42.9254 90.1239 42.6578 90.4037 42.6578 91.1644C42.6578 91.9962 42.8681 92.1598 44.06 92.2545C47.2732 92.5105 63.6096 90.4507 65.2389 89.5842C65.6799 89.3497 66.4183 89.1579 66.8794 89.1579C68.0091 89.1579 75.7039 86.564 78.8139 85.1346C80.1916 84.5018 81.4282 83.9836 81.5624 83.9836C82.1253 83.9836 88.9564 79.6833 91.7323 77.5817C95.1735 74.9766 97.1236 73.0072 100.185 69.0452C102.58 65.9478 102.846 65.5219 104.775 61.7024C108.402 54.5216 110.003 44.9706 108.346 40.3997C108.029 39.524 107.766 38.3869 107.763 37.8726C107.759 37.3584 107.513 36.3732 107.215 35.6835C106.918 34.9937 106.255 33.3546 105.743 32.0411C104.581 29.0619 100.804 22.9124 99.6374 22.1004C98.5105 21.3167 98.3026 21.3338 97.3408 22.2895ZM81.9174 25.1604C78.2682 26.37 76.8437 27.7118 75.5449 31.1639C74.8639 32.9729 74.8619 33.1803 75.5056 35.1358C76.3866 37.8117 77.4149 39.2088 79.436 40.4765C80.7873 41.3243 81.546 41.5018 83.755 41.4879C85.605 41.4763 86.79 41.2519 87.5812 40.7627C90.8689 38.7296 92.1329 36.577 92.1329 33.0099C92.1329 30.8554 91.9778 30.3666 90.8337 28.9142C90.1194 28.0071 89.3951 27.2039 89.2245 27.1299C89.0534 27.0554 88.6147 26.6976 88.2494 26.3346C87.6481 25.7372 84.5073 24.6764 83.5198 24.7377C83.2995 24.7513 82.5784 24.9415 81.9174 25.1604ZM48.5207 32.3743C47.8697 33.1536 49.1793 34.1666 53.6745 36.3601C60.2781 39.5829 63.6088 41.5643 67.6958 44.7027C73.8724 49.446 78.9585 55.4041 80.9259 60.2015C82.2258 63.371 82.8936 63.285 86.4599 59.491C90.6134 55.0725 93.9821 48.6257 94.9804 43.1859C95.8116 38.6571 95.8401 38.2149 95.3409 37.6175C94.6006 36.7307 93.4296 36.8855 93.1083 37.912C92.5583 39.6705 90.0633 42.947 88.6384 43.7825C86.6846 44.9276 83.8175 45.2345 82.08 44.4838C79.6491 43.4342 78.7237 42.9996 78.1116 42.6203C76.6838 41.7351 71.4158 38.7479 70.5001 38.3037C69.9492 38.0366 69.2281 37.6577 68.8976 37.461C68.5671 37.2648 67.5756 36.794 66.6943 36.4146C65.8129 36.0353 64.5815 35.4781 63.9577 35.1768C63.334 34.8751 62.5179 34.6283 62.1438 34.6283C61.77 34.6283 61.1086 34.3843 60.6744 34.0862C60.2397 33.7881 59.0727 33.4247 58.0812 33.279C57.0897 33.1333 55.5574 32.7584 54.6761 32.4455C52.6089 31.7123 49.1076 31.6718 48.5207 32.3743ZM84.0554 86.4326C83.1 86.8677 81.7772 87.4687 81.1161 87.7676C80.4551 88.0665 79.3471 88.4219 78.654 88.5581C76.5965 88.9613 76.1767 89.8083 74.533 96.8717C73.2034 102.585 73.6572 110.731 75.7608 118.91L76.298 121H77.9562C79.4993 121 79.6339 120.911 79.9059 119.706C80.0662 118.995 80.3434 116.443 80.5213 114.035C81.2123 104.692 82.8167 98.5828 86.3905 91.6814C88.4785 87.6502 88.5839 86.6077 86.9598 86.0453C86.0312 85.7237 85.4379 85.8029 84.0554 86.4326Z" fill="#FE7DA6"/>
</svg>
