<svg width="26" height="28" viewBox="0 0 26 28" fill="none" xmlns="http://www.w3.org/2000/svg">
<path d="M24.2129 1.27941V26.019C24.2129 26.7256 23.6401 27.2984 22.9335 27.2984H2.65478C1.94818 27.2984 1.37537 26.7256 1.37537 26.019V5.1347H5.23492C5.94152 5.1347 6.51434 4.56188 6.51434 3.85528V0H22.9335C23.6401 0 24.2129 0.572812 24.2129 1.27941Z" fill="#E9EDF4"/>
<path d="M1.37537 5.1347H5.23492C5.94152 5.1347 6.51434 4.56188 6.51434 3.85528V0L1.37537 5.1347Z" fill="#D2DBEA"/>
<path d="M25.5882 15.8617V21.7982C25.5882 22.5048 25.0154 23.0776 24.3088 23.0776H1.27941C0.572812 23.0776 0 22.5048 0 21.7982V15.8617C0 15.1551 0.572812 14.5823 1.27941 14.5823H24.3088C25.0154 14.5823 25.5882 15.1551 25.5882 15.8617Z" fill="#F14F4A"/>
<path d="M20.6978 8.74346C20.6978 9.04951 20.4537 9.29354 20.1477 9.29354H5.44054C5.1386 9.29354 4.89046 9.04951 4.89046 8.74346C4.89046 8.43741 5.1386 8.19339 5.44054 8.19339H20.1477C20.4537 8.19339 20.6978 8.43741 20.6978 8.74346Z" fill="#D2DBEA"/>
<path d="M20.6978 11.5626C20.6978 11.8687 20.4537 12.1127 20.1477 12.1127H5.44054C5.1386 12.1127 4.89046 11.8687 4.89046 11.5626C4.89046 11.2566 5.1386 11.0125 5.44054 11.0125H20.1477C20.4537 11.0125 20.6978 11.2566 20.6978 11.5626Z" fill="#D2DBEA"/>
<path d="M7.36867 20.8594C7.31661 20.8075 7.29079 20.7436 7.29079 20.6676V17.0005C7.29079 16.9247 7.31661 16.8598 7.36867 16.8058C7.42031 16.7519 7.48445 16.725 7.56025 16.725H8.92629C9.3057 16.725 9.61555 16.789 9.85503 16.9166C10.0949 17.0445 10.2665 17.2084 10.3706 17.4081C10.4743 17.6078 10.5264 17.8235 10.5264 18.055C10.5264 18.2868 10.4743 18.5026 10.3706 18.7022C10.2665 18.9022 10.0949 19.0658 9.85503 19.1937C9.61555 19.3215 9.3057 19.3853 8.92629 19.3853H7.83595V20.6676C7.83595 20.7436 7.80888 20.8075 7.75516 20.8594C7.70102 20.9112 7.63605 20.9373 7.56025 20.9373C7.48445 20.9373 7.42031 20.9112 7.36867 20.8594ZM8.87256 18.8701C9.27987 18.8701 9.56641 18.7922 9.73217 18.6364C9.89792 18.4805 9.9808 18.2868 9.9808 18.055C9.9808 17.8235 9.89792 17.6296 9.73217 17.4739C9.56641 17.3181 9.27987 17.2402 8.87256 17.2402H7.83595V18.8701H8.87256Z" fill="white"/>
<path d="M7.56025 21.0439C7.45696 21.0439 7.3645 21.0062 7.29329 20.9348C7.22082 20.8625 7.18417 20.7728 7.18417 20.6676V17.0005C7.18417 16.8962 7.2204 16.8058 7.29204 16.7317C7.36284 16.6578 7.45571 16.6184 7.56025 16.6184H8.92629C9.32194 16.6184 9.65095 16.6871 9.905 16.8225C10.1628 16.9599 10.351 17.1403 10.4652 17.3587C10.5764 17.5732 10.633 17.8075 10.633 18.055C10.633 18.3026 10.5764 18.5371 10.4652 18.7514C10.3515 18.9698 10.1628 19.1504 9.905 19.2878C9.65137 19.4232 9.32235 19.4919 8.92629 19.4919H7.94257V20.6676C7.94257 20.7717 7.90342 20.8646 7.82929 20.936C7.75433 21.0076 7.66395 21.0439 7.56025 21.0439ZM7.56025 16.8317C7.51319 16.8317 7.47695 16.8469 7.44572 16.8795C7.41282 16.9137 7.39741 16.9522 7.39741 17.0005V20.6676C7.39741 20.7153 7.41198 20.7523 7.44405 20.7838C7.50819 20.8479 7.61314 20.8477 7.68144 20.7823C7.71393 20.7509 7.72934 20.7145 7.72934 20.6676V19.2787H8.92629C9.28695 19.2787 9.58224 19.2185 9.80463 19.0996C10.0241 18.9827 10.1824 18.8326 10.2761 18.6529C10.3715 18.4694 10.4198 18.2683 10.4198 18.055C10.4198 17.842 10.3715 17.6409 10.2761 17.4572C10.1824 17.2777 10.0237 17.1273 9.80505 17.0107C9.58182 16.8918 9.28654 16.8317 8.92629 16.8317H7.56025ZM8.87256 18.9767H7.72934V17.1336H8.87256C9.31194 17.1336 9.61722 17.2194 9.80505 17.3962C9.99246 17.5721 10.0874 17.7939 10.0874 18.055C10.0874 18.3162 9.99246 18.538 9.80505 18.7141C9.61722 18.8909 9.31194 18.9767 8.87256 18.9767ZM7.94257 18.7635H8.87256C9.24989 18.7635 9.51477 18.6945 9.65928 18.5588C9.8038 18.4226 9.87418 18.2579 9.87418 18.055C9.87418 17.8522 9.8038 17.6875 9.65928 17.5515C9.51477 17.4158 9.24989 17.3468 8.87256 17.3468H7.94257V18.7635Z" fill="white"/>
<path d="M11.3952 20.8294C11.3431 20.7775 11.3173 20.7136 11.3173 20.6376V17.0005C11.3173 16.9247 11.3431 16.8598 11.3952 16.8058C11.4468 16.7519 11.5109 16.725 11.5867 16.725H12.7912C13.2464 16.725 13.6329 16.8258 13.9506 17.0276C14.268 17.2294 14.5066 17.4899 14.6666 17.8095C14.8261 18.1292 14.906 18.4647 14.906 18.8162C14.906 19.1677 14.8261 19.5031 14.6666 19.8228C14.5066 20.1424 14.268 20.4029 13.9506 20.6047C13.6329 20.8065 13.2464 20.9073 12.7912 20.9073H11.5867C11.5109 20.9073 11.4468 20.8812 11.3952 20.8294ZM12.7254 20.3979C13.0527 20.3979 13.3401 20.3311 13.5879 20.1972C13.8357 20.0635 14.0273 19.8778 14.163 19.6399C14.2988 19.4023 14.3671 19.1277 14.3671 18.8162C14.3671 18.5046 14.2988 18.23 14.163 17.9922C14.0273 17.7546 13.8357 17.5688 13.5879 17.4349C13.3401 17.3012 13.0527 17.2342 12.7254 17.2342H11.8624V20.3979H12.7254Z" fill="white"/>
<path d="M12.7912 21.0139H11.5867C11.4834 21.0139 11.391 20.9762 11.3198 20.9048C11.2473 20.8325 11.2107 20.7428 11.2107 20.6376V17.0005C11.2107 16.8962 11.2469 16.8058 11.3185 16.7317C11.3893 16.6578 11.4822 16.6184 11.5867 16.6184H12.7912C13.2651 16.6184 13.6741 16.7259 14.0077 16.9376C14.3405 17.149 14.5941 17.4264 14.7619 17.7618C14.9281 18.0952 15.0127 18.4499 15.0127 18.8162C15.0127 19.1824 14.9281 19.5371 14.7619 19.8705C14.5941 20.2059 14.3405 20.4833 14.0077 20.6947C13.6741 20.9064 13.2651 21.0139 12.7912 21.0139ZM11.5867 16.8317C11.5397 16.8317 11.5034 16.8469 11.4722 16.8795C11.4393 16.9137 11.4239 16.9522 11.4239 17.0005V20.6376C11.4239 20.6853 11.4385 20.7222 11.4705 20.7538C11.5022 20.7855 11.5393 20.8007 11.5867 20.8007H12.7912C13.2239 20.8007 13.5946 20.7045 13.8936 20.5147C14.193 20.3244 14.4208 20.0756 14.5712 19.7751C14.7228 19.4717 14.7994 19.1489 14.7994 18.8162C14.7994 18.4834 14.7228 18.1606 14.5712 17.8572C14.4208 17.5567 14.193 17.3079 13.8936 17.1176C13.5946 16.9279 13.2239 16.8317 12.7912 16.8317H11.5867ZM12.7254 20.5045H11.7558V17.1276H12.7254C13.0685 17.1276 13.3759 17.1994 13.6387 17.341C13.9027 17.4839 14.1106 17.6852 14.2555 17.9393C14.4004 18.1927 14.4737 18.4878 14.4737 18.8162C14.4737 19.1445 14.4004 19.4396 14.2555 19.6928C14.1106 19.9471 13.9027 20.1485 13.6387 20.2911C13.3763 20.4327 13.069 20.5045 12.7254 20.5045ZM11.9691 20.2913H12.7254C13.0331 20.2913 13.3064 20.228 13.5371 20.1035C13.7657 19.98 13.9452 19.8063 14.0706 19.5871C14.1964 19.3663 14.2605 19.1071 14.2605 18.8162C14.2605 18.5252 14.1964 18.266 14.0706 18.0451C13.9452 17.826 13.7657 17.6523 13.5371 17.5286C13.3059 17.4041 13.0327 17.3408 12.7254 17.3408H11.9691V20.2913Z" fill="white"/>
<path d="M15.8952 20.8594C15.8431 20.8075 15.8173 20.7436 15.8173 20.6676V17.0005C15.8173 16.9247 15.8431 16.8598 15.8952 16.8058C15.9468 16.7519 16.0109 16.725 16.0867 16.725H18.4178C18.4894 16.725 18.5502 16.75 18.6002 16.7998C18.6501 16.8498 18.6751 16.9108 18.6751 16.9826C18.6751 17.0545 18.6501 17.1144 18.6002 17.1623C18.5502 17.2102 18.4894 17.2342 18.4178 17.2342H16.3625V18.5584H18.2079C18.2799 18.5584 18.3407 18.5836 18.3907 18.6333C18.4407 18.6833 18.4657 18.7441 18.4657 18.8162C18.4657 18.888 18.4407 18.948 18.3907 18.9959C18.3407 19.0438 18.2799 19.0677 18.2079 19.0677H16.3625V20.6676C16.3625 20.7436 16.3354 20.8075 16.2817 20.8594C16.2275 20.9112 16.1625 20.9373 16.0867 20.9373C16.0109 20.9373 15.9468 20.9112 15.8952 20.8594Z" fill="white"/>
<path d="M16.0867 21.0439C15.9835 21.0439 15.891 21.0062 15.8198 20.9348C15.7473 20.8625 15.7107 20.7728 15.7107 20.6676V17.0005C15.7107 16.8962 15.7469 16.8058 15.8185 16.7317C15.8893 16.6578 15.9822 16.6184 16.0867 16.6184H18.4178C18.5181 16.6184 18.6048 16.654 18.6756 16.7242C18.7451 16.794 18.7818 16.8831 18.7818 16.9826C18.7818 17.083 18.7443 17.1717 18.6739 17.2394C18.6035 17.3066 18.5173 17.3408 18.4178 17.3408H16.4691V18.4517H18.2079C18.3086 18.4517 18.3953 18.4873 18.4661 18.5577C18.5365 18.6283 18.5723 18.7154 18.5723 18.8162C18.5723 18.9165 18.5348 19.0052 18.4644 19.0729C18.394 19.1402 18.3078 19.1743 18.2079 19.1743H16.4691V20.6676C16.4691 20.7717 16.4299 20.8646 16.3558 20.936C16.2808 21.0076 16.1904 21.0439 16.0867 21.0439ZM16.0867 16.8317C16.0397 16.8317 16.0034 16.8469 15.9722 16.8795C15.9393 16.9137 15.9239 16.9522 15.9239 17.0005V20.6676C15.9239 20.7153 15.9385 20.7523 15.9705 20.7838C16.0347 20.8479 16.1396 20.8477 16.2079 20.7823C16.2404 20.7509 16.2558 20.7145 16.2558 20.6676V18.9611H18.2079C18.2524 18.9611 18.287 18.9478 18.317 18.9188C18.3457 18.8913 18.359 18.8586 18.359 18.8162C18.359 18.7726 18.3453 18.7385 18.3153 18.7087C18.2853 18.6789 18.2512 18.665 18.2079 18.665H16.2558V17.1276H18.4178C18.4619 17.1276 18.4965 17.1142 18.5265 17.0853C18.5552 17.0578 18.5685 17.0251 18.5685 16.9826C18.5685 16.9391 18.5548 16.905 18.5248 16.8752C18.4948 16.8456 18.4611 16.8317 18.4178 16.8317H16.0867Z" fill="white"/>
</svg>
