<svg width="371" height="452" viewBox="0 0 371 452" fill="none" xmlns="http://www.w3.org/2000/svg">
<path fill-rule="evenodd" clip-rule="evenodd" d="M74.126 37.7745C74.2689 38.5544 72.3005 40.1609 69.7528 41.3442C67.2054 42.5291 63.7477 44.7633 62.0711 46.3119C60.3943 47.8591 58.3294 49.2915 57.483 49.4968C56.1125 49.8269 51.2865 53.7619 46.3225 58.5939C45.3602 59.5314 43.3434 61.2717 41.8406 62.4634C40.3363 63.6539 38.505 65.4761 37.7707 66.5103C37.035 67.5448 33.3032 72.3116 29.478 77.102C12.5786 98.2663 1.62226 130.874 1.53185 160.281C1.52013 164.118 1.15303 168.552 0.718409 170.134C-0.278955 173.754 11.4877 238.509 13.0745 238.136C13.715 237.985 15.3695 241.606 16.7493 246.18C18.1291 250.755 20.1258 255.673 21.1873 257.107C22.2478 258.544 23.9342 261.633 24.9348 263.973C28.6152 272.588 45.5877 299.137 54.2652 309.854C67.4078 326.085 78.6153 337.368 98.356 354.235C115.294 368.709 153.668 394.096 157.313 393.238C159.973 392.613 159.943 388.978 157.26 386.601C151.388 381.397 126.921 355.942 126.716 354.82C126.647 354.444 124.267 351.585 121.427 348.464C118.587 345.344 116.196 342.42 116.113 341.967C116.03 341.514 113.742 338.667 111.028 335.641C108.315 332.614 102.879 325.317 98.9477 319.424C95.0182 313.531 89.7887 305.734 87.3272 302.099C80.1659 291.516 80.3971 290.475 90.4382 288.113C98.7027 286.169 99.1491 285.844 103.033 278.953C106.985 271.942 109.723 269.576 110.292 272.682C110.746 275.16 118.445 286.671 121.211 289.009C124.455 291.751 131.661 290.056 133.729 286.065C135.301 283.03 136.585 273.181 137.843 254.496C138.192 249.301 138.733 241.853 139.044 237.945C139.354 234.037 139.479 229.127 139.321 227.033C138.794 220.029 141.728 223.046 146.29 234.198C150.573 244.672 153.471 251.621 160.304 267.806C161.94 271.682 164.366 277.989 165.697 281.824C169.96 294.106 174.892 302.428 178.267 303.034C182.305 303.757 187.805 301.153 189.406 297.76C191.002 294.374 191.967 278.694 192.224 251.957C192.312 242.807 193.101 242.822 199.138 252.083C204.649 260.538 207.316 260.622 238.342 253.324C267.516 246.461 271.48 244.573 270.294 238.1C268.911 230.549 269.268 230.555 239.293 237.606C218.456 242.507 210.833 243.803 209.591 242.656C208.671 241.807 206.098 237.357 203.875 232.767C197.957 220.556 194.25 217.212 188.205 218.634C182.162 220.055 179.576 225.527 179.522 237.001C179.421 259.323 178.988 266.716 177.652 269.037C175.865 272.141 175.358 271.406 171.285 259.8C168.704 252.448 167.529 249.546 160.838 233.98C159.423 230.691 157.248 225.102 156.004 221.56C153.396 214.138 148.393 202.311 146.161 198.293C143.81 194.061 137.512 192.516 133.518 195.191C129.905 197.61 126.36 209.465 127.395 215.66C127.717 217.586 127.565 221.457 127.056 224.262C126.547 227.066 125.984 232.185 125.803 235.636C124.851 253.824 123.891 263.676 122.908 265.364C122.144 266.676 120.314 264.88 116.859 259.432C111.388 250.807 108.185 248.426 103.447 249.466C100.48 250.117 95.1692 257.67 95.6877 260.499C95.818 261.211 94.7663 264.212 93.3501 267.166C90.9667 272.143 90.1481 272.687 82.2856 274.537C75.3547 276.167 73.5736 276.087 72.5893 274.106C71.9252 272.77 70.1899 269.518 68.7316 266.879C56.639 244.988 44.3812 199.394 43.8916 174.483C43.6944 164.471 46.9285 140.946 49.1022 136.573C49.8597 135.05 50.3879 133.304 50.2761 132.693C50.03 131.351 57.4589 114.154 61.629 106.414C69.3345 92.1151 85.9163 73.7865 99.6272 64.4133C112.525 55.5972 143.17 48.505 160.722 50.2737C174.836 51.6967 200.781 61.2834 201.527 65.3519C202.188 68.963 207.053 64.5339 213.226 54.7011C216.99 48.7058 220.514 43.6966 221.055 43.5691C221.597 43.4417 222.665 42.2764 223.427 40.9801C224.819 38.6089 231.92 32.3926 239.8 26.6484C248.056 20.6284 277.864 16.4277 284.129 20.4003C285.479 21.2572 287.305 21.7885 288.185 21.5814C291.305 20.8477 306.767 30.2987 314.143 37.4481C321.181 44.2712 325.828 45.8895 327.098 41.9621C327.868 39.5807 311.64 22.5473 302.142 15.7667C294.845 10.5572 289.519 8.07892 277.528 4.31288C270.989 2.25939 263.7 1.00039 261.439 1.53233C260.102 1.84666 256.697 1.60193 253.869 0.988705C247.066 -0.488234 239.606 1.46631 227.432 7.91363C215.439 14.2658 208.694 18.8985 203.462 24.3824C201.326 26.6217 198.248 29.6358 196.622 31.0795C194.997 32.5248 193.037 34.7335 192.269 35.9894C189.943 39.7872 185.223 39.8717 178.184 36.2392C165.38 29.6337 146.641 25.2654 133.993 25.9379C130.903 26.1024 128.268 25.6546 128.137 24.9416C128.007 24.2286 115.742 26.506 100.883 30.0011C84.6057 33.8298 73.9693 36.9189 74.126 37.7745ZM314.468 66.5304C311.888 70.9596 312.085 72.0815 317.391 83.111C321.162 90.9519 326.238 108.424 329.126 123.51C330.73 131.889 331.632 149.949 330.636 153.748C330.129 155.677 329.98 158.7 330.304 160.466C330.627 162.232 330.368 165.65 329.728 168.063C329.087 170.476 327.814 176.112 326.897 180.588C325.981 185.065 324.24 191.749 323.031 195.443C321.82 199.136 320.386 203.823 319.844 205.859C314.746 224.991 284.184 273.387 263.712 294.749C260.641 297.953 256.755 302.062 255.075 303.881C251.466 307.787 226.667 329.9 220.616 334.608C218.3 336.409 214.895 339.2 213.049 340.807C211.203 342.416 209.064 343.879 208.296 344.06C207.529 344.241 204.691 346.206 201.991 348.426C195.923 353.419 189.705 357.691 184.764 360.266C181.837 361.791 181.148 363.042 181.668 365.881C182.237 368.986 183.041 369.433 187.026 368.865C197.772 367.333 250.106 347.005 254.874 342.511C256.165 341.295 258.462 340.007 259.979 339.65C263.696 338.776 287.236 323.141 296.49 315.401C300.589 311.973 304.303 309.082 304.745 308.978C306.596 308.543 326.129 287.208 333.824 277.218C343.363 264.833 348.432 255.974 355.796 238.819C361.554 225.407 362.139 223.611 365.874 207.864C372.896 178.259 371.632 141.377 363.055 125.601C361.412 122.578 359.77 118.538 359.408 116.621C359.046 114.705 357.562 111.219 356.111 108.875C354.66 106.531 351.359 100.927 348.777 96.4212C342.917 86.2022 326.285 66.1755 321.894 64.0476C317.651 61.9949 316.978 62.2196 314.468 66.5304ZM265.691 89.1793C254.514 96.5172 250.745 102.627 248.833 116.515C247.829 123.793 247.964 124.568 251.419 131.368C256.147 140.673 260.485 145.091 268.001 148.258C273.026 150.376 275.643 150.452 282.901 148.69C288.979 147.216 292.724 145.461 294.992 143.023C304.418 132.892 307.104 123.881 304.665 110.568C303.192 102.528 302.348 100.824 297.591 96.2887C294.621 93.4562 291.689 91.0191 291.077 90.8749C290.463 90.7295 288.775 89.7335 287.325 88.6615C284.938 86.8972 273.881 85.369 270.674 86.3618C269.958 86.5828 267.716 87.8509 265.691 89.1793ZM160.757 141.943C159.149 145.356 164.15 148.123 180.437 152.83C204.365 159.748 216.677 164.565 232.268 173.115C255.831 186.037 276.637 204.336 286.389 220.718C292.833 231.54 294.971 230.702 304.109 213.784C314.752 194.08 321.426 167.414 320.991 146.341C320.629 128.797 320.42 127.124 318.369 125.281C315.327 122.544 311.581 124.028 311.226 128.108C310.619 135.096 304.651 149.254 300.535 153.475C294.891 159.26 285.668 162.624 279.439 161.167C270.724 159.131 267.383 158.225 265.11 157.283C259.808 155.084 240.435 148.013 237.118 147.064C235.123 146.493 232.492 145.637 231.27 145.159C230.049 144.683 226.465 143.693 223.307 142.959C220.148 142.225 215.716 141.099 213.458 140.457C211.199 139.814 208.346 139.524 207.115 139.814C205.885 140.103 203.543 139.704 201.91 138.928C200.277 138.151 196.189 137.698 192.828 137.922C189.466 138.145 184.169 137.932 181.056 137.446C173.754 136.31 162.208 138.867 160.757 141.943ZM314.621 316.189C311.775 318.552 307.834 321.818 305.864 323.445C303.894 325.072 300.492 327.256 298.305 328.301C291.812 331.397 291.01 334.883 290.432 362.515C289.964 384.866 297.028 414.916 309.541 443.812L312.737 451.195L318.192 449.912C323.268 448.718 323.65 448.281 323.721 443.576C323.762 440.796 322.929 431.057 321.867 421.932C317.753 386.534 318.854 362.491 325.892 333.97C330.004 317.31 329.638 313.338 323.911 312.496C320.636 312.015 318.738 312.769 314.621 316.189Z" fill="#64D0FF"/>
</svg>
