<svg width="89" height="68" viewBox="0 0 89 68" fill="none" xmlns="http://www.w3.org/2000/svg"><path d="M68.24 29.63v-.073a1.48 1.48 0 011.484-1.478h5.935a5.946 5.946 0 004.357-1.88 5.897 5.897 0 001.578-4.46c-.31-3.156-3.004-5.544-6.187-5.483H53.269a8.858 8.858 0 00-2.834-5.113V5.91C50.435 2.647 47.778 0 44.5 0c-3.278 0-5.935 2.647-5.935 5.911v5.232a8.858 8.858 0 00-2.834 5.113H13.34a5.946 5.946 0 00-4.357 1.88 5.897 5.897 0 00-1.578 4.46c.31 3.156 3.004 5.544 6.187 5.483h5.683c.82 0 1.484.662 1.484 1.478v.074c-8.706.584-16.265 6.181-19.336 14.316A22.103 22.103 0 006.5 67.404c.28.277.659.43 1.053.428.395.003.774-.151 1.054-.428a1.475 1.475 0 000-2.099 19.156 19.156 0 01-4.179-20.932c2.985-7.177 10.015-11.858 17.814-11.86h4.452a2.962 2.962 0 002.967-2.956 1.48 1.48 0 011.484-1.478h1.484c.82 0 1.484.662 1.484 1.478v11.04c-4.965-5.259-12.815-6.627-19.277-3.36-6.462 3.266-9.988 10.386-8.657 17.48 1.33 7.095 7.199 12.467 14.409 13.19 7.21.723 14.035-3.376 16.76-10.065a13.145 13.145 0 017.151-1.684c2.492-.132 4.97.453 7.137 1.684 2.719 6.69 9.54 10.794 16.751 10.077 7.21-.717 13.083-6.084 14.42-13.177 1.336-7.094-2.183-14.216-8.642-17.488-6.459-3.272-14.31-1.911-19.28 3.342v-11.04a1.48 1.48 0 011.484-1.477h1.484c.82 0 1.484.662 1.484 1.478a2.962 2.962 0 002.967 2.955h4.452c7.799.003 14.83 4.684 17.813 11.861a19.156 19.156 0 01-4.178 20.932 1.475 1.475 0 000 2.099c.28.277.66.43 1.054.428.394.003.773-.151 1.053-.428a22.104 22.104 0 005.077-23.457c-3.071-8.135-10.63-13.732-19.336-14.317zM41.533 5.912A2.962 2.962 0 0144.5 2.956a2.962 2.962 0 012.968 2.955v3.473a8.772 8.772 0 00-5.936 0V5.911zm2.967 5.912a5.932 5.932 0 015.669 4.237 5.9 5.9 0 01-2.45 6.625c-2.09-.69-4.348-.69-6.439 0a5.9 5.9 0 01-2.449-6.625 5.932 5.932 0 015.669-4.237zm0 13.3c4.097 0 7.419 3.308 7.419 7.39 0 4.08-3.322 7.389-7.419 7.389-4.097 0-7.419-3.309-7.419-7.39 0-4.08 3.322-7.389 7.419-7.389zm-11.87 0h-1.484c-2.458 0-4.451 1.985-4.451 4.434h-2.968c0-2.449-1.993-4.434-4.451-4.434h-5.683a3.171 3.171 0 01-3.22-2.734c-.059-.859.26-1.7.876-2.305a2.974 2.974 0 012.092-.872h22.39a8.856 8.856 0 002.656 4.965 10.143 10.143 0 00-2.434 2.424 4.459 4.459 0 00-3.323-1.478zm-21.44 33.99a13.437 13.437 0 01-1.484-3.133l16.87-16.817a13.54 13.54 0 013.146 1.477L11.189 59.113zm11.054-20.69h.83L8.89 52.553v-.828c0-7.345 5.978-13.3 13.354-13.3zm0 26.602c-3.388 0-6.648-1.29-9.11-3.606l18.842-18.77a13.26 13.26 0 012.49 14.362 13.355 13.355 0 01-12.223 8.013zM44.5 53.202a18.737 18.737 0 00-6.128.931c.124-.797.188-1.602.193-2.409V51a24.1 24.1 0 0111.96 0v.724c.003.802.068 1.602.192 2.394a19.255 19.255 0 00-6.217-.916zm11.202 5.911a13.439 13.439 0 01-1.483-3.133l16.87-16.817a13.55 13.55 0 013.146 1.477L55.702 59.113zm24.408-7.389a13.299 13.299 0 01-8.044 12.174 13.394 13.394 0 01-14.42-2.48L76.49 42.65a13.183 13.183 0 013.62 9.074zm-13.353-13.3h.83L53.403 52.552v-.828c0-7.345 5.978-13.3 13.354-13.3zm-14.838 6.561c-.45.977-.798 1.997-1.039 3.045a27.912 27.912 0 00-12.76 0 15.687 15.687 0 00-1.039-3.045V39.74a10.407 10.407 0 007.419 3.105c2.791 0 5.465-1.12 7.419-3.105v5.246zm5.935-19.862H56.37a4.459 4.459 0 00-3.323 1.478 10.365 10.365 0 00-2.419-2.468 8.856 8.856 0 002.641-4.921h22.138a3.171 3.171 0 013.22 2.734c.059.859-.26 1.7-.876 2.305a2.973 2.973 0 01-2.092.872h-5.935c-2.458 0-4.451 1.985-4.451 4.434h-2.968c0-2.449-1.993-4.434-4.451-4.434z" fill="#fff"/></svg>