<svg width="109" height="76" viewBox="0 0 109 76" fill="none" xmlns="http://www.w3.org/2000/svg"><path fill-rule="evenodd" clip-rule="evenodd" d="M28.837.38c0 .21-.66.503-1.465.653-.806.15-1.933.515-2.504.812-.571.296-1.25.54-1.507.54-.417.003-2.034.722-3.738 1.663-.33.183-1.011.508-1.513.724-.502.214-1.133.572-1.402.793-.27.222-1.612 1.22-2.982 2.22C7.67 12.201 2.737 19.915 1.14 27.464c-.208.985-.552 2.102-.763 2.482-.484.87-.513 18.215-.03 18.215.194 0 .483 1.03.641 2.289.158 1.258.477 2.642.71 3.075.232.433.559 1.329.725 1.99.613 2.436 4.141 10.281 6.098 13.558 2.963 4.964 5.627 8.54 10.48 14.066C23.163 87.88 32.991 96.72 34.1 96.72c.808 0 .994-.935.339-1.708-1.434-1.692-7.205-9.709-7.205-10.01 0-.1-.54-.979-1.201-1.952s-1.202-1.869-1.202-1.99-.515-.991-1.144-1.932c-.63-.942-1.824-3.145-2.655-4.896a977.13 977.13 0 00-2.461-5.153c-1.522-3.151-1.399-3.405 1.653-3.405 2.512 0 2.66-.056 4.16-1.592 1.526-1.562 2.45-2.004 2.45-1.172 0 .664 1.629 4.086 2.31 4.854.799.9 2.99.9 3.805 0 .62-.685 1.52-3.137 2.885-7.861.379-1.313.934-3.194 1.233-4.18.3-.984.598-2.238.664-2.785.22-1.832.914-.88 1.648 2.261.689 2.95 1.162 4.91 2.29 9.48.27 1.095.64 2.862.823 3.927.586 3.413 1.58 5.849 2.53 6.208 1.138.43 2.88.093 3.528-.682.646-.773 1.764-4.743 3.267-11.595.514-2.346.743-2.294 2.008.45 1.154 2.505 1.927 2.687 11.358 2.687 8.868 0 10.124-.245 10.124-1.98 0-2.023.104-2-9.007-2-6.334 0-8.625-.128-8.926-.498-.223-.273-.735-1.572-1.138-2.885-1.072-3.494-1.974-4.577-3.811-4.577s-2.883 1.249-3.511 4.193c-1.222 5.728-1.742 7.601-2.256 8.117-.686.69-.795.47-1.362-2.758-.36-2.044-.547-2.86-1.666-7.264a57.614 57.614 0 01-.745-3.483c-.364-2.064-1.19-5.404-1.627-6.571-.459-1.23-2.212-2.007-3.518-1.561-1.182.403-2.848 3.234-2.878 4.888-.008.514-.26 1.5-.558 2.19-.298.69-.735 1.97-.972 2.846-1.249 4.614-2.054 7.087-2.43 7.461-.294.291-.731-.28-1.447-1.889-1.134-2.546-1.94-3.351-3.376-3.37-.9-.013-2.85 1.607-2.85 2.365 0 .19-.467.898-1.038 1.571-.96 1.135-1.228 1.225-3.618 1.225-2.107 0-2.621-.128-2.802-.697a63.723 63.723 0 00-.739-2.09c-2.355-6.353-3.493-18.806-2.305-25.235.477-2.584 2.675-8.432 3.542-9.424.303-.345.55-.762.55-.926 0-.36 3.083-4.328 4.711-6.064 3.01-3.208 8.82-6.914 13.316-8.494 4.23-1.485 13.539-1.455 18.559.06 4.037 1.218 11.086 5.248 11.086 6.338 0 .968 1.654.124 3.978-2.029 1.417-1.312 2.711-2.386 2.876-2.386.165 0 .538-.235.83-.522.532-.525 2.933-1.693 5.536-2.692 2.727-1.048 11.638-.326 13.252 1.073.347.302.851.549 1.119.549.948 0 4.95 3.362 6.717 5.644 1.687 2.178 2.954 2.875 3.534 1.942.352-.565-3.468-5.921-5.874-8.237-1.848-1.779-3.268-2.737-6.561-4.43-1.796-.922-3.853-1.686-4.54-1.686-.406 0-1.386-.269-2.177-.597-1.904-.79-4.182-.739-8.074.182-3.834.907-6.047 1.69-7.865 2.782-.742.446-1.8 1.034-2.35 1.307-.551.273-1.24.722-1.531.998-.88.835-2.26.572-4.118-.787-3.379-2.47-8.606-4.725-12.328-5.316-.91-.145-1.653-.419-1.653-.61S41.566 0 37.049 0c-4.948 0-8.212.15-8.212.38zM97.34 22.29c-.988.981-.99 1.282-.033 4.436.68 2.242 1.226 7.037 1.262 11.087.02 2.249-.681 6.943-1.174 7.858-.251.465-.456 1.233-.456 1.706 0 .473-.258 1.336-.573 1.917-.316.581-.988 1.952-1.494 3.047-.506 1.094-1.37 2.706-1.92 3.582a60.662 60.662 0 00-1.485 2.483C88.96 63.013 77.47 73.598 70.364 77.849a245.979 245.979 0 00-3.005 1.824c-1.26.785-9.668 4.967-11.682 5.811-.772.323-1.913.834-2.537 1.135-.623.302-1.325.549-1.558.549-.234 0-1.165.333-2.07.74-2.036.916-4.076 1.638-5.653 2.001-.935.215-1.202.495-1.202 1.255 0 .832.21.996 1.402 1.09 3.213.256 19.55-1.803 21.179-2.67.44-.234 1.18-.426 1.64-.426 1.13 0 8.825-2.594 11.935-4.023 1.378-.633 2.614-1.151 2.748-1.151.563 0 7.394-4.3 10.17-6.402 3.442-2.605 5.392-4.575 8.453-8.537 2.395-3.097 2.661-3.523 4.59-7.343 3.627-7.18 5.228-16.731 3.571-21.302-.317-.876-.58-2.013-.583-2.527-.004-.515-.25-1.5-.548-2.19-.297-.69-.96-2.328-1.472-3.642-1.162-2.98-4.939-9.129-6.106-9.94-1.127-.784-1.334-.767-2.296.189zm-15.424 2.87c-3.649 1.21-5.073 2.552-6.372 6.004-.681 1.809-.683 2.016-.04 3.972.882 2.676 1.91 4.073 3.931 5.34 1.351.848 2.11 1.026 4.319 1.012 1.85-.012 3.035-.236 3.826-.725 3.288-2.033 4.552-4.186 4.552-7.753 0-2.155-.155-2.643-1.3-4.096-.714-.907-1.438-1.71-1.608-1.784-.172-.075-.61-.432-.976-.795-.6-.598-3.742-1.659-4.73-1.597-.22.013-.94.204-1.602.422zM48.52 32.374c-.651.78.658 1.793 5.154 3.986 6.603 3.223 9.934 5.204 14.02 8.343 6.177 4.743 11.264 10.701 13.23 15.498 1.3 3.17 1.969 3.084 5.535-.71 4.153-4.419 7.522-10.865 8.52-16.305.832-4.529.86-4.971.36-5.569-.74-.886-1.91-.731-2.232.295-.55 1.758-3.045 5.035-4.47 5.87-1.953 1.146-4.82 1.453-6.558.702-2.43-1.05-3.356-1.484-3.968-1.864-1.428-.885-6.696-3.872-7.612-4.316a26.9 26.9 0 01-1.602-.843c-.33-.196-1.322-.667-2.204-1.046a85.314 85.314 0 01-2.736-1.238c-.624-.302-1.44-.549-1.814-.549-.374 0-1.035-.244-1.47-.542-.434-.298-1.601-.661-2.593-.807-.991-.146-2.524-.52-3.405-.834-2.067-.733-5.568-.773-6.155-.07zm35.534 54.059c-.955.435-2.278 1.036-2.939 1.335-.66.299-1.769.654-2.462.79-2.057.403-2.477 1.25-4.121 8.314-1.33 5.713-.876 13.859 1.228 22.038l.537 2.09h1.658c1.543 0 1.678-.089 1.95-1.294.16-.711.437-3.263.615-5.671.691-9.343 2.296-15.452 5.87-22.354 2.087-4.03 2.193-5.073.569-5.636-.929-.321-1.522-.242-2.905.388z" fill="#60CDFF"/></svg>