<svg width="26" height="28" viewBox="0 0 26 28" fill="none" xmlns="http://www.w3.org/2000/svg"><path d="M24.213 1.28v24.739a1.28 1.28 0 01-1.28 1.28H2.655a1.28 1.28 0 01-1.28-1.28V5.135h3.86a1.28 1.28 0 001.28-1.28V0h16.418c.707 0 1.28.573 1.28 1.28z" fill="#E9EDF4"/><path d="M1.375 5.135h3.86a1.28 1.28 0 001.28-1.28V0l-5.14 5.135z" fill="#D2DBEA"/><path d="M25.588 15.862v5.936a1.28 1.28 0 01-1.28 1.28H1.28A1.28 1.28 0 010 21.798v-5.936c0-.707.573-1.28 1.28-1.28h23.029c.706 0 1.28.573 1.28 1.28z" fill="#F14F4A"/><path d="M20.698 8.743c0 .307-.244.55-.55.55H5.44a.55.55 0 110-1.1h14.707c.306 0 .55.244.55.55zm0 2.82c0 .306-.244.55-.55.55H5.44a.55.55 0 110-1.1h14.707c.306 0 .55.244.55.55z" fill="#D2DBEA"/><path d="M7.369 20.86a.26.26 0 01-.078-.192V17a.27.27 0 01.078-.194.255.255 0 01.191-.081h1.366c.38 0 .69.064.929.192.24.127.412.291.516.491.103.2.155.415.155.647 0 .232-.052.448-.155.647-.104.2-.276.364-.516.492s-.55.191-.929.191h-1.09v1.283c0 .076-.027.14-.08.191a.272.272 0 01-.196.078.26.26 0 01-.191-.078zm1.504-1.99c.407 0 .693-.078.86-.234a.765.765 0 00.248-.581.765.765 0 00-.249-.581c-.166-.156-.452-.234-.86-.234H7.837v1.63h1.037z" fill="#fff"/><path d="M7.56 21.044a.369.369 0 01-.267-.11.364.364 0 01-.109-.266V17c0-.104.036-.194.108-.268a.363.363 0 01.268-.114h1.366c.396 0 .725.07.979.205.258.137.446.317.56.536.111.214.168.448.168.696 0 .248-.057.482-.168.696a1.295 1.295 0 01-.56.537c-.254.135-.583.204-.979.204h-.983v1.176a.377.377 0 01-.382.376zm0-4.212a.149.149 0 00-.114.047.165.165 0 00-.049.121v3.668c0 .047.015.084.047.116a.17.17 0 00.237-.002.15.15 0 00.048-.114v-1.39h1.197c.36 0 .656-.06.879-.178.22-.117.377-.267.471-.447a1.29 1.29 0 00.144-.598 1.29 1.29 0 00-.144-.598 1.089 1.089 0 00-.471-.446c-.223-.12-.518-.18-.879-.18H7.56zm1.313 2.145H7.729v-1.843h1.144c.439 0 .744.085.932.262a.87.87 0 01.282.659.871.871 0 01-.282.66c-.188.176-.493.262-.932.262zm-.93-.213h.93c.377 0 .642-.07.786-.205a.658.658 0 00.215-.504.658.658 0 00-.215-.503c-.144-.136-.41-.205-.786-.205h-.93v1.416zm3.452 2.066a.26.26 0 01-.078-.192V17a.27.27 0 01.078-.194.255.255 0 01.192-.081h1.204c.455 0 .842.1 1.16.303.317.201.556.462.716.782a2.226 2.226 0 010 2.013c-.16.32-.399.58-.716.782-.318.201-.705.302-1.16.302h-1.204a.26.26 0 01-.192-.078zm1.33-.432c.328 0 .615-.067.863-.2.248-.134.44-.32.575-.558a1.63 1.63 0 00.204-.824c0-.311-.068-.586-.204-.824a1.43 1.43 0 00-.575-.557 1.788 1.788 0 00-.863-.2h-.863v3.163h.863z" fill="#fff"/><path d="M12.791 21.014h-1.204a.369.369 0 01-.267-.11.364.364 0 01-.11-.266V17c0-.104.037-.194.108-.268a.363.363 0 01.269-.114h1.204c.474 0 .883.108 1.217.32.333.211.586.488.754.824a2.344 2.344 0 010 2.108 2.063 2.063 0 01-.754.825c-.334.211-.743.319-1.217.319zm-1.204-4.182a.149.149 0 00-.115.047.165.165 0 00-.048.121v3.638c0 .047.014.084.046.116a.155.155 0 00.117.047h1.204c.433 0 .804-.096 1.103-.286.299-.19.527-.44.677-.74a2.128 2.128 0 000-1.918c-.15-.3-.378-.55-.677-.74-.3-.19-.67-.285-1.103-.285h-1.204zm1.138 3.672h-.97v-3.376h.97c.344 0 .65.071.914.213.264.143.472.344.617.598.144.254.218.549.218.877 0 .329-.074.624-.219.877a1.54 1.54 0 01-.616.598 1.9 1.9 0 01-.914.213zm-.756-.213h.756c.308 0 .581-.063.812-.188.229-.123.408-.297.534-.516.125-.22.19-.48.19-.77 0-.292-.065-.551-.19-.772a1.336 1.336 0 00-.534-.516 1.694 1.694 0 00-.812-.188h-.756v2.95zm3.926.569a.26.26 0 01-.078-.192V17a.27.27 0 01.078-.194.255.255 0 01.192-.081h2.33c.072 0 .133.025.183.075a.25.25 0 01.075.183.239.239 0 01-.075.18.254.254 0 01-.182.071h-2.055v1.324h1.845a.25.25 0 01.183.075c.05.05.075.111.075.183a.239.239 0 01-.075.18.254.254 0 01-.183.072h-1.845v1.6a.272.272 0 01-.276.27.26.26 0 01-.192-.079z" fill="#fff"/><path d="M16.087 21.044a.369.369 0 01-.267-.11.364.364 0 01-.11-.266V17c0-.104.037-.194.108-.268a.363.363 0 01.269-.114h2.33c.101 0 .188.036.259.106.07.07.106.16.106.259a.36.36 0 01-.364.358h-1.949v1.11h1.739c.1 0 .187.036.258.107.07.07.106.157.106.258a.36.36 0 01-.364.358h-1.739v1.494a.378.378 0 01-.382.376zm0-4.212a.149.149 0 00-.115.047.165.165 0 00-.048.121v3.668c0 .047.014.084.046.116a.17.17 0 00.238-.002.15.15 0 00.048-.114V18.96h1.952a.148.148 0 00.109-.042.133.133 0 00.042-.103.142.142 0 00-.044-.107.144.144 0 00-.107-.044h-1.952v-1.537h2.162a.147.147 0 00.108-.043.133.133 0 00.043-.102.142.142 0 00-.044-.108.143.143 0 00-.107-.043h-2.331z" fill="#fff"/></svg>