<svg width="371" height="452" viewBox="0 0 371 452" fill="none" xmlns="http://www.w3.org/2000/svg"><path fill-rule="evenodd" clip-rule="evenodd" d="M74.126 37.775c.143.78-1.826 2.386-4.373 3.57-2.548 1.184-6.005 3.418-7.682 4.967-1.677 1.547-3.742 2.98-4.588 3.185-1.37.33-6.197 4.265-11.16 9.097-.963.937-2.98 2.678-4.482 3.87-1.505 1.19-3.336 3.012-4.07 4.046-.736 1.035-4.468 5.802-8.293 10.592-16.9 21.164-27.856 53.772-27.946 83.179-.012 3.837-.379 8.271-.814 9.853-.997 3.62 10.77 68.375 12.357 68.002.64-.151 2.295 3.47 3.674 8.044 1.38 4.575 3.377 9.493 4.438 10.927 1.06 1.437 2.747 4.526 3.748 6.866 3.68 8.615 20.653 35.164 29.33 45.881 13.143 16.231 24.35 27.514 44.091 44.381 16.938 14.474 55.312 39.861 58.957 39.003 2.66-.625 2.63-4.26-.053-6.637-5.872-5.204-30.339-30.659-30.544-31.781-.069-.376-2.449-3.235-5.289-6.356-2.84-3.12-5.231-6.044-5.314-6.497-.083-.453-2.371-3.3-5.085-6.326-2.713-3.027-8.149-10.324-12.08-16.217-3.93-5.893-9.16-13.69-11.62-17.325-7.162-10.583-6.93-11.624 3.11-13.986 8.265-1.944 8.711-2.269 12.595-9.16 3.952-7.011 6.69-9.377 7.259-6.271.454 2.478 8.153 13.989 10.919 16.327 3.244 2.742 10.45 1.047 12.518-2.944 1.572-3.035 2.856-12.884 4.114-31.569.349-5.195.89-12.643 1.201-16.551.31-3.908.435-8.818.277-10.912-.527-7.004 2.407-3.987 6.969 7.165 4.283 10.474 7.181 17.423 14.014 33.608 1.636 3.876 4.062 10.183 5.393 14.018 4.263 12.282 9.195 20.604 12.57 21.21 4.038.723 9.538-1.881 11.139-5.274 1.596-3.386 2.561-19.066 2.818-45.803.088-9.15.877-9.135 6.914.126 5.511 8.455 8.178 8.539 39.204 1.241 29.174-6.863 33.138-8.751 31.952-15.224-1.383-7.551-1.026-7.545-31.001-.494-20.837 4.901-28.46 6.197-29.702 5.05-.92-.849-3.493-5.299-5.716-9.889-5.918-12.211-9.625-15.555-15.67-14.133-6.043 1.421-8.629 6.893-8.683 18.367-.101 22.322-.534 29.715-1.87 32.036-1.787 3.104-2.294 2.369-6.367-9.237-2.581-7.352-3.756-10.254-10.447-25.82-1.415-3.289-3.59-8.878-4.834-12.42-2.608-7.422-7.611-19.249-9.843-23.267-2.351-4.232-8.649-5.777-12.643-3.102-3.613 2.419-7.158 14.274-6.123 20.469.322 1.926.17 5.797-.339 8.602-.509 2.804-1.072 7.923-1.253 11.374-.952 18.188-1.912 28.04-2.895 29.728-.764 1.312-2.594-.484-6.049-5.932-5.471-8.625-8.674-11.006-13.412-9.966-2.967.651-8.278 8.204-7.76 11.033.131.712-.92 3.713-2.337 6.667-2.383 4.977-3.202 5.521-11.064 7.371-6.931 1.63-8.712 1.55-9.697-.431-.664-1.336-2.4-4.588-3.857-7.227-12.093-21.891-24.35-67.485-24.84-92.396-.198-10.012 3.036-33.537 5.21-37.91.758-1.523 1.286-3.269 1.174-3.88-.246-1.342 7.183-18.539 11.353-26.279 7.706-14.299 24.287-32.627 37.998-42 12.898-8.817 43.543-15.909 61.095-14.14 14.114 1.423 40.059 11.01 40.805 15.078.661 3.611 5.526-.818 11.699-10.65 3.764-5.996 7.288-11.005 7.829-11.133.542-.127 1.61-1.293 2.372-2.589 1.392-2.371 8.493-8.587 16.373-14.332 8.256-6.02 38.064-10.22 44.329-6.248 1.35.857 3.176 1.389 4.056 1.181 3.12-.733 18.582 8.718 25.958 15.867 7.038 6.823 11.685 8.441 12.955 4.514.77-2.381-15.458-19.415-24.956-26.195-7.297-5.21-12.623-7.688-24.614-11.454C270.989 2.259 263.7 1 261.439 1.533c-1.337.314-4.742.069-7.57-.544-6.803-1.477-14.263.477-26.437 6.925-11.993 6.352-18.738 10.984-23.97 16.468-2.136 2.24-5.214 5.254-6.84 6.697-1.625 1.446-3.585 3.654-4.353 4.91-2.326 3.798-7.046 3.883-14.085.25-12.804-6.605-31.543-10.974-44.191-10.301-3.09.164-5.725-.283-5.856-.996-.13-.713-12.395 1.564-27.254 5.06-16.277 3.828-26.914 6.917-26.757 7.773zM314.468 66.53c-2.58 4.43-2.383 5.552 2.923 16.581 3.771 7.84 8.847 25.313 11.735 40.399 1.604 8.379 2.506 26.439 1.51 30.238-.507 1.929-.656 4.952-.332 6.718.323 1.766.064 5.184-.576 7.597-.641 2.413-1.914 8.049-2.831 12.525-.916 4.477-2.657 11.161-3.866 14.855-1.211 3.693-2.645 8.38-3.187 10.416-5.098 19.132-35.66 67.528-56.132 88.89-3.071 3.204-6.957 7.313-8.637 9.132-3.609 3.906-28.408 26.019-34.459 30.727-2.316 1.801-5.721 4.592-7.567 6.199-1.846 1.609-3.985 3.072-4.753 3.253-.767.181-3.605 2.146-6.305 4.366-6.068 4.993-12.286 9.265-17.227 11.84-2.927 1.525-3.616 2.776-3.096 5.615.569 3.105 1.373 3.552 5.358 2.984 10.746-1.532 63.08-21.86 67.848-26.354 1.291-1.216 3.588-2.504 5.105-2.861 3.717-.874 27.257-16.509 36.511-24.249 4.099-3.428 7.813-6.319 8.255-6.423 1.851-.435 21.384-21.77 29.079-31.76 9.539-12.385 14.608-21.244 21.972-38.399 5.758-13.412 6.343-15.208 10.078-30.955 7.022-29.605 5.758-66.487-2.819-82.263-1.643-3.023-3.285-7.063-3.647-8.98-.362-1.916-1.846-5.402-3.297-7.746-1.451-2.344-4.752-7.948-7.334-12.454-5.86-10.219-22.492-30.246-26.883-32.373-4.243-2.053-4.916-1.828-7.426 2.482zm-48.777 22.65c-11.177 7.337-14.946 13.447-16.858 27.335-1.004 7.278-.869 8.053 2.586 14.853 4.728 9.305 9.066 13.723 16.582 16.89 5.025 2.118 7.642 2.194 14.9.432 6.078-1.474 9.823-3.229 12.091-5.667 9.426-10.131 12.112-19.142 9.673-32.455-1.473-8.04-2.317-9.744-7.074-14.28-2.97-2.832-5.902-5.269-6.514-5.413-.614-.145-2.302-1.141-3.752-2.213-2.387-1.765-13.444-3.293-16.651-2.3-.716.22-2.958 1.489-4.983 2.817zm-104.934 52.763c-1.608 3.413 3.393 6.18 19.68 10.887 23.928 6.918 36.24 11.735 51.831 20.285 23.563 12.922 44.369 31.221 54.121 47.603 6.444 10.822 8.582 9.984 17.72-6.934 10.643-19.704 17.317-46.37 16.882-67.443-.362-17.544-.571-19.217-2.622-21.06-3.042-2.737-6.788-1.253-7.143 2.827-.607 6.988-6.575 21.146-10.691 25.367-5.644 5.785-14.867 9.149-21.096 7.692-8.715-2.036-12.056-2.942-14.329-3.884-5.302-2.199-24.675-9.27-27.992-10.219-1.995-.571-4.626-1.427-5.848-1.905-1.221-.476-4.805-1.466-7.963-2.2-3.159-.734-7.591-1.86-9.849-2.502-2.259-.643-5.112-.933-6.343-.643-1.23.289-3.572-.11-5.205-.886-1.633-.777-5.721-1.23-9.082-1.006-3.362.223-8.659.01-11.772-.476-7.302-1.136-18.848 1.421-20.299 4.497zm153.864 174.246a5483.895 5483.895 0 01-8.757 7.256c-1.97 1.627-5.372 3.811-7.559 4.856-6.493 3.096-7.295 6.582-7.873 34.214-.468 22.351 6.596 52.401 19.109 81.297l3.196 7.383 5.455-1.283c5.076-1.194 5.458-1.631 5.529-6.336.041-2.78-.792-12.519-1.854-21.644-4.114-35.398-3.013-59.441 4.025-87.962 4.112-16.66 3.746-20.632-1.981-21.474-3.275-.481-5.173.273-9.29 3.693z" fill="#64D0FF"/></svg>